<?xml version="1.0" encoding="UTF-8" standalone="no"?>
<svg
   xmlns:dc="http://purl.org/dc/elements/1.1/"
   xmlns:cc="http://creativecommons.org/ns#"
   xmlns:rdf="http://www.w3.org/1999/02/22-rdf-syntax-ns#"
   xmlns:svg="http://www.w3.org/2000/svg"
   xmlns="http://www.w3.org/2000/svg"
   xmlns:xlink="http://www.w3.org/1999/xlink"
   xmlns:sodipodi="http://sodipodi.sourceforge.net/DTD/sodipodi-0.dtd"
   xmlns:inkscape="http://www.inkscape.org/namespaces/inkscape"
   width="16"
   viewBox="0 0 16 16"
   height="16"
   id="svg3101"
   version="1.1"
   inkscape:version="0.48.4 r9939"
   sodipodi:docname="checkbox-checked-dark.svg">
  <metadata
     id="metadata3119">
    <rdf:RDF>
      <cc:Work
         rdf:about="">
        <dc:format>image/svg+xml</dc:format>
        <dc:type
           rdf:resource="http://purl.org/dc/dcmitype/StillImage" />
      </cc:Work>
    </rdf:RDF>
  </metadata>
  <sodipodi:namedview
     pagecolor="#ffffff"
     bordercolor="#666666"
     borderopacity="1"
     objecttolerance="10"
     gridtolerance="10"
     guidetolerance="10"
     inkscape:pageopacity="0"
     inkscape:pageshadow="2"
     inkscape:window-width="1280"
     inkscape:window-height="974"
     id="namedview3117"
     showgrid="false"
     inkscape:zoom="9.700586"
     inkscape:cx="4.61756"
     inkscape:cy="7.9995825"
     inkscape:window-x="0"
     inkscape:window-y="25"
     inkscape:window-maximized="1"
     inkscape:current-layer="svg3101" />
  <defs
     id="defs3103">
    <linearGradient
       id="linearGradient3809">
      <stop
         offset="0"
         style="stop-color:#262626"
         id="stop3106" />
      <stop
         offset="1"
         style="stop-color:#393939"
         id="stop3108" />
    </linearGradient>
    <linearGradient
       gradientTransform="translate(-.032 -16.03134)"
       id="linearGradient3832"
       xlink:href="#linearGradient3809"
       x1=".811"
       x2="15.253"
       gradientUnits="userSpaceOnUse" />
  </defs>
  <rect
     width="14.442"
     x=".779"
     y="-15.473"
     rx="1"
     height="14.947"
     style="fill:#333333;fill-opacity:1"
     transform="rotate(90)"
     id="rect3111" />
  <path
     style="fill:#1f1f1f"
     d="M 2,0 C 0.892,0 0,0.892 0,2 l 0,12 c 0,1.108 0.892,2 2,2 l 12,0 c 1.108,0 2,-0.892 2,-2 L 16,2 C 16,0.892 15.108,0 14,0 L 2,0 z m 0,1 12,0 c 0.554,0 1,0.446 1,1 l 0,12 c 0,0.554 -0.446,1 -1,1 L 2,15 C 1.446,15 1,14.554 1,14 L 1,2 C 1,1.446 1.446,1 2,1 z"
     id="path3113" />
  <path
     d="M 4.0104096,7.9688408 7.0622702,11.00865 12.366553,4.7400415"
     id="path5880"
     style="fill:none;stroke:#4787ee;stroke-width:2.64400005;stroke-linecap:round;stroke-linejoin:round;stroke-miterlimit:4;stroke-opacity:1;stroke-dasharray:none"
     inkscape:connector-curvature="0"
     sodipodi:nodetypes="ccc" />
</svg>
