<?xml version="1.0" encoding="UTF-8" standalone="no"?>
<svg
   xmlns:dc="http://purl.org/dc/elements/1.1/"
   xmlns:cc="http://creativecommons.org/ns#"
   xmlns:rdf="http://www.w3.org/1999/02/22-rdf-syntax-ns#"
   xmlns:svg="http://www.w3.org/2000/svg"
   xmlns="http://www.w3.org/2000/svg"
   xmlns:sodipodi="http://sodipodi.sourceforge.net/DTD/sodipodi-0.dtd"
   xmlns:inkscape="http://www.inkscape.org/namespaces/inkscape"
   viewBox="0 0 16 16"
   id="svg2"
   version="1.1"
   inkscape:version="0.48.4 r9939"
   width="100%"
   height="100%"
   sodipodi:docname="checkbox-checked-insensitive.svg">
  <metadata
     id="metadata18">
    <rdf:RDF>
      <cc:Work
         rdf:about="">
        <dc:format>image/svg+xml</dc:format>
        <dc:type
           rdf:resource="http://purl.org/dc/dcmitype/StillImage" />
      </cc:Work>
    </rdf:RDF>
  </metadata>
  <defs
     id="defs16" />
  <sodipodi:namedview
     pagecolor="#ffffff"
     bordercolor="#666666"
     borderopacity="1"
     objecttolerance="10"
     gridtolerance="10"
     guidetolerance="10"
     inkscape:pageopacity="0"
     inkscape:pageshadow="2"
     inkscape:window-width="849"
     inkscape:window-height="609"
     id="namedview14"
     showgrid="false"
     inkscape:zoom="16.875"
     inkscape:cx="8"
     inkscape:cy="8"
     inkscape:window-x="102"
     inkscape:window-y="50"
     inkscape:window-maximized="0"
     inkscape:current-layer="g8" />
  <g
     transform="translate(0 -1036.3622)"
     id="g4"
     style="fill:#cccccc">
    <rect
       width="14.505"
       x=".747"
       y="1037.046"
       rx="1"
       height="14.568"
       style="fill:#cccccc"
       id="rect6" />
  </g>
  <g
     style="fill:#aaa"
     transform="translate(0 -1036.3622)"
     id="g8">
    <path
       d="M 2 0 C 0.892 0 3.2526065e-18 0.892 0 2 L 0 14 C 0 15.108 0.892 16 2 16 L 14 16 C 15.108 16 16 15.108 16 14 L 16 2 C 16 0.892 15.108 3.2526065e-18 14 0 L 2 0 z M 2 1 L 14 1 C 14.554 1 15 1.446 15 2 L 15 14 C 15 14.554 14.554 15 14 15 L 2 15 C 1.446 15 1 14.554 1 14 L 1 2 C 1 1.446 1.446 1 2 1 z "
       transform="translate(0 1036.3622)"
       id="path10" />
    <path
       d="m 3.8811876,1044.4567 3.0518598,3.0398 5.3042836,-6.2686"
       id="path5880"
       style="fill:none;stroke:#a4a4a4;stroke-width:2.64400004999999982;stroke-linecap:round;stroke-linejoin:round;stroke-miterlimit:4;stroke-opacity:1;stroke-dasharray:none"
       inkscape:connector-curvature="0"
       sodipodi:nodetypes="ccc" />
  </g>
</svg>
