<?xml version="1.0" encoding="UTF-8" standalone="no"?>
<svg
   xmlns:dc="http://purl.org/dc/elements/1.1/"
   xmlns:cc="http://creativecommons.org/ns#"
   xmlns:rdf="http://www.w3.org/1999/02/22-rdf-syntax-ns#"
   xmlns:svg="http://www.w3.org/2000/svg"
   xmlns="http://www.w3.org/2000/svg"
   xmlns:sodipodi="http://sodipodi.sourceforge.net/DTD/sodipodi-0.dtd"
   xmlns:inkscape="http://www.inkscape.org/namespaces/inkscape"
   viewBox="0 0 16 16"
   id="svg2"
   version="1.1"
   inkscape:version="0.48.4 r9939"
   width="100%"
   height="100%"
   sodipodi:docname="radio-selected-insensitive-dark.svg">
  <metadata
     id="metadata18">
    <rdf:RDF>
      <cc:Work
         rdf:about="">
        <dc:format>image/svg+xml</dc:format>
        <dc:type
           rdf:resource="http://purl.org/dc/dcmitype/StillImage" />
      </cc:Work>
    </rdf:RDF>
  </metadata>
  <defs
     id="defs16" />
  <sodipodi:namedview
     pagecolor="#ffffff"
     bordercolor="#666666"
     borderopacity="1"
     objecttolerance="10"
     gridtolerance="10"
     guidetolerance="10"
     inkscape:pageopacity="0"
     inkscape:pageshadow="2"
     inkscape:window-width="687"
     inkscape:window-height="480"
     id="namedview14"
     showgrid="false"
     inkscape:zoom="14.75"
     inkscape:cx="8"
     inkscape:cy="8"
     inkscape:window-x="0"
     inkscape:window-y="25"
     inkscape:window-maximized="0"
     inkscape:current-layer="g8" />
  <path
     inkscape:connector-curvature="0"
     id="path6"
     d="m 8.0319969,0.7732 c 4.0385821,0 7.3125001,3.254 7.3125001,7.2678 0,4.0139 -3.273918,7.2679 -7.3125001,7.2679 -4.0385817,0 -7.31249964,-3.254 -7.31249964,-7.2679 0,-4.0138 3.27391794,-7.2678 7.31249964,-7.2678 z"
     style="fill:#2a2a2a" />
  <g
     style="fill:#1f1f1f"
     transform="translate(0 -1036.3622)"
     id="g8">
    <path
       d="M 8 0 C 3.581722 8.8817842e-16 -3.006854e-17 3.581722 0 8 C 0 12.418278 3.581722 16 8 16 C 12.418278 16 16 12.418278 16 8 C 16 3.581722 12.418278 -1.8064254e-15 8 0 z M 8 1 C 11.865993 1 15 4.1340068 15 8 C 15 11.865993 11.865993 15 8 15 C 4.1340068 15 1 11.865993 1 8 C 1 4.1340068 4.1340068 1 8 1 z "
       transform="translate(0 1036.3622)"
       id="path10" />
    <path
       style="opacity:0.8"
       d="m 11.75,1044.3622 c 0,2.0711 -1.678932,3.75 -3.75,3.75 -2.0710677,0 -3.75,-1.6789 -3.75,-3.75 0,-2.0711 1.6789323,-3.75 3.75,-3.75 2.071068,0 3.75,1.6789 3.75,3.75 z"
       id="path12"
       inkscape:connector-curvature="0" />
  </g>
</svg>
