<?xml version="1.0" encoding="UTF-8" standalone="no"?>
<svg
   xmlns:dc="http://purl.org/dc/elements/1.1/"
   xmlns:cc="http://creativecommons.org/ns#"
   xmlns:rdf="http://www.w3.org/1999/02/22-rdf-syntax-ns#"
   xmlns:svg="http://www.w3.org/2000/svg"
   xmlns="http://www.w3.org/2000/svg"
   xmlns:sodipodi="http://sodipodi.sourceforge.net/DTD/sodipodi-0.dtd"
   xmlns:inkscape="http://www.inkscape.org/namespaces/inkscape"
   viewBox="0 0 16 16"
   id="svg2"
   version="1.1"
   inkscape:version="0.48.5 r10040"
   width="100%"
   height="100%"
   sodipodi:docname="radio-selected-insensitive.svg">
  <metadata
     id="metadata18">
    <rdf:RDF>
      <cc:Work
         rdf:about="">
        <dc:format>image/svg+xml</dc:format>
        <dc:type
           rdf:resource="http://purl.org/dc/dcmitype/StillImage" />
      </cc:Work>
    </rdf:RDF>
  </metadata>
  <defs
     id="defs16" />
  <sodipodi:namedview
     pagecolor="#ffffff"
     bordercolor="#666666"
     borderopacity="1"
     objecttolerance="10"
     gridtolerance="10"
     guidetolerance="10"
     inkscape:pageopacity="0"
     inkscape:pageshadow="2"
     inkscape:window-width="1280"
     inkscape:window-height="974"
     id="namedview14"
     showgrid="false"
     inkscape:zoom="14.75"
     inkscape:cx="8"
     inkscape:cy="8"
     inkscape:window-x="0"
     inkscape:window-y="25"
     inkscape:window-maximized="1"
     inkscape:current-layer="svg2" />
  <g
     transform="translate(0 -1036.3622)"
     id="g4"
     style="fill:#f2f2f2">
    <path
       style="fill:#f2f2f2"
       d="m 8.0315672,1036.8571 c 4.1275048,0 7.4735088,3.3602 7.4735088,7.5051 0,4.1449 -3.346004,7.5051 -7.4735088,7.5051 -4.1275049,0 -7.47350894,-3.3602 -7.47350894,-7.5051 0,-4.1449 3.34600404,-7.5051 7.47350894,-7.5051 z"
       id="path6" />
  </g>
  <path
     style="fill:#aaaaaa"
     inkscape:connector-curvature="0"
     id="path10"
     d="M 8,0 C 3.581722,0 0,3.581722 0,8 c 0,4.418278 3.581722,8 8,8 4.418278,0 8,-3.581722 8,-8 C 16,3.581722 12.418278,0 8,0 z m 0,1 c 3.865993,0 7,3.1340068 7,7 0,3.865993 -3.134007,7 -7,7 C 4.1340068,15 1,11.865993 1,8 1,4.1340068 4.1340068,1 8,1 z" />
  <path
     style="fill:#aaaaaa"
     inkscape:connector-curvature="0"
     id="path12"
     d="m 11.75,8 c 0,2.071068 -1.678932,3.75 -3.75,3.75 C 5.9289323,11.75 4.25,10.071068 4.25,8 4.25,5.9289323 5.9289323,4.25 8,4.25 c 2.071068,0 3.75,1.6789323 3.75,3.75 z" />
</svg>
