<?xml version="1.0" encoding="UTF-8" standalone="no"?>
<!-- Created with Inkscape (http://www.inkscape.org/) -->

<svg
   xmlns:dc="http://purl.org/dc/elements/1.1/"
   xmlns:cc="http://creativecommons.org/ns#"
   xmlns:rdf="http://www.w3.org/1999/02/22-rdf-syntax-ns#"
   xmlns:svg="http://www.w3.org/2000/svg"
   xmlns="http://www.w3.org/2000/svg"
   xmlns:xlink="http://www.w3.org/1999/xlink"
   xmlns:sodipodi="http://sodipodi.sourceforge.net/DTD/sodipodi-0.dtd"
   xmlns:inkscape="http://www.inkscape.org/namespaces/inkscape"
   width="16"
   height="16"
   id="svg12430"
   version="1.1"
   inkscape:version="0.48.4 r9939"
   sodipodi:docname="more-results.svg">
  <defs
     id="defs12432">
    <linearGradient
       id="linearGradient3783">
      <stop
         style="stop-color:#555555;stop-opacity:1;"
         offset="0"
         id="stop3785" />
      <stop
         style="stop-color:#666666;stop-opacity:1;"
         offset="1"
         id="stop3787" />
    </linearGradient>
    <linearGradient
       id="linearGradient4250-5">
      <stop
         id="stop4252-5"
         offset="0"
         style="stop-color:#ffffff;stop-opacity:0;" />
      <stop
         id="stop4254-2"
         offset="1"
         style="stop-color:#ffffff;stop-opacity:0.2" />
    </linearGradient>
    <linearGradient
       inkscape:collect="always"
       xlink:href="#linearGradient3818-2"
       id="linearGradient3833"
       x1="118.37485"
       y1="394.86606"
       x2="132.37485"
       y2="394.86606"
       gradientUnits="userSpaceOnUse"
       gradientTransform="translate(280.61622,-544.8659)" />
    <linearGradient
       inkscape:collect="always"
       xlink:href="#linearGradient4250-5"
       id="linearGradient3904"
       gradientUnits="userSpaceOnUse"
       gradientTransform="matrix(0,-1,-1,0,544.86587,531.36589)"
       x1="118.37485"
       y1="394.86606"
       x2="132.37485"
       y2="394.86606" />
    <linearGradient
       id="linearGradient3818-2">
      <stop
         style="stop-color:#fefefe;stop-opacity:1;"
         offset="0"
         id="stop3820-2" />
      <stop
         style="stop-color:#999999;stop-opacity:1;"
         offset="1"
         id="stop3822-0" />
    </linearGradient>
    <linearGradient
       inkscape:collect="always"
       xlink:href="#linearGradient3783"
       id="linearGradient3789"
       x1="145.99984"
       y1="405.99107"
       x2="153.99984"
       y2="405.99107"
       gradientUnits="userSpaceOnUse"
       gradientTransform="matrix(0,1,-1,0,555.99091,255.99123)" />
  </defs>
  <sodipodi:namedview
     id="base"
     pagecolor="#000000"
     bordercolor="#666666"
     borderopacity="1.0"
     inkscape:pageopacity="0.78431373"
     inkscape:pageshadow="2"
     inkscape:zoom="1"
     inkscape:cx="8"
     inkscape:cy="8"
     inkscape:document-units="px"
     inkscape:current-layer="g14642-3-0"
     showgrid="false"
     borderlayer="false"
     inkscape:showpageshadow="false"
     inkscape:window-width="1920"
     inkscape:window-height="1018"
     inkscape:window-x="0"
     inkscape:window-y="26"
     inkscape:window-maximized="1"
     showborder="false">
    <inkscape:grid
       type="xygrid"
       id="grid13002"
       empspacing="5"
       visible="true"
       enabled="true"
       snapvisiblegridlinesonly="true" />
  </sodipodi:namedview>
  <metadata
     id="metadata12435">
    <rdf:RDF>
      <cc:Work
         rdf:about="">
        <dc:format>image/svg+xml</dc:format>
        <dc:type
           rdf:resource="http://purl.org/dc/dcmitype/StillImage" />
        <dc:title />
      </cc:Work>
    </rdf:RDF>
  </metadata>
  <g
     inkscape:label="Layer 1"
     inkscape:groupmode="layer"
     id="layer1"
     transform="translate(0,-1036.3622)">
    <g
       style="display:inline"
       transform="translate(-141.99984,638.37113)"
       inkscape:label="zoom-in"
       id="g14642-3-0">
      <rect
         style="fill:none;stroke:none"
         id="rect3620-5-4"
         width="15.981825"
         height="16"
         x="142"
         y="398"
         rx="0"
         ry="0" />
      <rect
         style="opacity:0.2;fill:#000000;fill-opacity:1"
         id="rect3807"
         width="16"
         height="16"
         x="141.99985"
         y="397.99106"
         rx="3"
         ry="3" />
      <path
         transform="matrix(0,1,-1,0,0,0)"
         style="fill:url(#linearGradient3833);fill-opacity:1;display:inline"
         d="m 400.99106,-156.99985 10,0 c 1.108,0 2,0.892 2,2 l 0,10 c 0,1.108 -0.892,2 -2,2 l -10,0 c -1.108,0 -2,-0.892 -2,-2 l 0,-10 c 0,-1.108 0.892,-2 2,-2 z"
         id="rect3807-5" />
      <path
         style="fill:url(#linearGradient3904);fill-opacity:1;display:inline"
         d="m 144.99984,412.99107 c -1.108,0 -2,-0.892 -2,-2 l 0,-10 c 0,-1.108 0.892,-2 2,-2 l 10,0 c 1.108,0 2,0.892 2,2 l 0,10 c 0,1.108 -0.892,2 -2,2 l -10,0 z m 0,-1 10,0 c 0.554,0 1,-0.446 1,-1 l 0,-10 c 0,-0.554 -0.446,-1 -1,-1 l -10,0 c -0.554,0 -1,0.446 -1,1 l 0,10 c 0,0.554 0.446,1 1,1 z"
         id="rect3807-5-1"
         inkscape:connector-curvature="0" />
      <path
         style="fill:url(#linearGradient3789);fill-opacity:1"
         d="m 153.99984,405.99107 c 0,-0.554 -0.446,-1 -1,-1 l -2,0 0,-2 c 0,-0.554 -0.446,-1 -1,-1 -0.554,0 -1,0.446 -1,1 l 0,2 -2,0 c -0.554,0 -1,0.446 -1,1 0,0.554 0.446,1 1,1 l 2,0 0,2 c 0,0.554 0.446,1 1,1 0.554,0 1,-0.446 1,-1 l 0,-2 2,0 c 0.554,0 1,-0.446 1,-1 z"
         id="rect3906"
         inkscape:connector-curvature="0" />
    </g>
  </g>
</svg>
