<?xml version="1.0" encoding="UTF-8" standalone="no"?>
<!-- Created with Inkscape (http://www.inkscape.org/) -->

<svg
   xmlns:dc="http://purl.org/dc/elements/1.1/"
   xmlns:cc="http://creativecommons.org/ns#"
   xmlns:rdf="http://www.w3.org/1999/02/22-rdf-syntax-ns#"
   xmlns:svg="http://www.w3.org/2000/svg"
   xmlns="http://www.w3.org/2000/svg"
   xmlns:sodipodi="http://sodipodi.sourceforge.net/DTD/sodipodi-0.dtd"
   xmlns:inkscape="http://www.inkscape.org/namespaces/inkscape"
   width="64px"
   height="64px"
   id="svg3471"
   version="1.1"
   inkscape:version="0.91 r13725"
   sodipodi:docname="no-events.svg">
  <defs
     id="defs3473" />
  <sodipodi:namedview
     id="base"
     pagecolor="#ffffff"
     bordercolor="#666666"
     borderopacity="1.0"
     inkscape:pageopacity="0.0"
     inkscape:pageshadow="2"
     inkscape:zoom="3.8890873"
     inkscape:cx="7.5371077"
     inkscape:cy="26.854389"
     inkscape:current-layer="layer1"
     showgrid="true"
     inkscape:document-units="px"
     inkscape:grid-bbox="true"
     inkscape:window-width="1461"
     inkscape:window-height="772"
     inkscape:window-x="182"
     inkscape:window-y="56"
     inkscape:window-maximized="0" />
  <metadata
     id="metadata3476">
    <rdf:RDF>
      <cc:Work
         rdf:about="">
        <dc:format>image/svg+xml</dc:format>
        <dc:type
           rdf:resource="http://purl.org/dc/dcmitype/StillImage" />
        <dc:title />
      </cc:Work>
    </rdf:RDF>
  </metadata>
  <g
     id="layer1"
     inkscape:label="Layer 1"
     inkscape:groupmode="layer">
    <path
       inkscape:connector-curvature="0"
       d="m 10,2.3636 c -4.20948,0 -8,3.38032 -8,7.75 l 0,44.5 c 0,4.36968 3.79052,7.75 8,7.75 l 44,0 c 4.20948,0 8,-3.38032 8,-7.75 l 0,-44.5 c 0,-4.36968 -3.79052,-7.75 -8,-7.75 l -44,0 z m 0,20 12.125,0 0,8 -12.125,0 0,-8 z m 16.125,0 11.875,0 0,8 -11.875,0 0,-8 z m 15.875,0 12,0 0,8 -12,0 0,-8 z m -32,12 12.125,0 0,8 -12.125,0 0,-8 z m 16.125,0 11.875,0 0,8 -11.875,0 0,-8 z m 15.875,0 12,0 0,8 -12,0 0,-8 z m -32,12 12.125,0 0,8 -12.125,0 0,-8 z m 16.125,0 11.875,0 0,8 -11.875,0 0,-8 z m 15.875,0 12,0 0,8 -12,0 0,-8 z"
       id="path19157"
       style="color:#000000;font-style:normal;font-variant:normal;font-weight:normal;font-stretch:normal;font-size:medium;line-height:normal;font-family:Sans;-inkscape-font-specification:Sans;text-indent:0;text-align:start;text-decoration:none;text-decoration-line:none;letter-spacing:normal;word-spacing:normal;text-transform:none;direction:ltr;block-progression:tb;writing-mode:lr-tb;baseline-shift:baseline;text-anchor:start;display:inline;overflow:visible;visibility:visible;fill:#505359;fill-opacity:1;stroke:none;stroke-width:2;marker:none;enable-background:new" />
    <rect
       height="7.9999971"
       id="rect19159"
       style="color:#000000;display:inline;overflow:visible;visibility:visible;opacity:0.5;fill:#505359;fill-opacity:1;stroke:none;stroke-width:1;marker:none;enable-background:accumulate"
       width="11.999997"
       x="41.999931"
       y="34.363602" />
  </g>
</svg>
