<?xml version="1.0" encoding="UTF-8" standalone="no"?>
<svg
   xmlns:dc="http://purl.org/dc/elements/1.1/"
   xmlns:cc="http://creativecommons.org/ns#"
   xmlns:rdf="http://www.w3.org/1999/02/22-rdf-syntax-ns#"
   xmlns:svg="http://www.w3.org/2000/svg"
   xmlns="http://www.w3.org/2000/svg"
   xmlns:xlink="http://www.w3.org/1999/xlink"
   xmlns:sodipodi="http://sodipodi.sourceforge.net/DTD/sodipodi-0.dtd"
   xmlns:inkscape="http://www.inkscape.org/namespaces/inkscape"
   width="16"
   viewBox="0 0 16 16"
   height="16"
   id="svg2"
   version="1.1"
   inkscape:version="0.48.5 r10040"
   sodipodi:docname="checkbox-checked.svg">
  <metadata
     id="metadata20">
    <rdf:RDF>
      <cc:Work
         rdf:about="">
        <dc:format>image/svg+xml</dc:format>
        <dc:type
           rdf:resource="http://purl.org/dc/dcmitype/StillImage" />
      </cc:Work>
    </rdf:RDF>
  </metadata>
  <sodipodi:namedview
     pagecolor="#ffffff"
     bordercolor="#666666"
     borderopacity="1"
     objecttolerance="10"
     gridtolerance="10"
     guidetolerance="10"
     inkscape:pageopacity="0"
     inkscape:pageshadow="2"
     inkscape:window-width="1042"
     inkscape:window-height="763"
     id="namedview18"
     showgrid="false"
     inkscape:zoom="19.462742"
     inkscape:cx="8.0006788"
     inkscape:cy="8.0006788"
     inkscape:window-x="0"
     inkscape:window-y="25"
     inkscape:window-maximized="0"
     inkscape:current-layer="svg2" />
  <defs
     id="defs4">
    <linearGradient
       id="linearGradient3809">
      <stop
         offset="0"
         style="stop-color:#e5e5e5"
         id="stop7" />
      <stop
         offset="1"
         style="stop-color:#f9f9f9"
         id="stop9" />
    </linearGradient>
    <linearGradient
       gradientTransform="translate(0 -16)"
       id="linearGradient3832"
       xlink:href="#linearGradient3809"
       x1="1"
       x2="15"
       gradientUnits="userSpaceOnUse" />
  </defs>
  <rect
     width="14"
     x="1"
     y="-15"
     rx="1"
     height="14"
     style="fill:#ffffff"
     transform="rotate(90)"
     id="rect12" />
  <path
     style="fill:#aaa"
     d="M 2,0 C 0.892,0 0,0.892 0,2 l 0,12 c 0,1.108 0.892,2 2,2 l 12,0 c 1.108,0 2,-0.892 2,-2 L 16,2 C 16,0.892 15.108,0 14,0 L 2,0 z m 0,1 12,0 c 0.554,0 1,0.446 1,1 l 0,12 c 0,0.554 -0.446,1 -1,1 L 2,15 C 1.446,15 1,14.554 1,14 L 1,2 C 1,1.446 1.446,1 2,1 z"
     id="path14" />
  <path
     d="M 3.7854007,7.9998662 6.8372609,11.039675 12.141544,4.7710669"
     id="path5880"
     style="fill:none;stroke:#4787ee;stroke-width:2.64400005;stroke-linecap:round;stroke-linejoin:round;stroke-miterlimit:4;stroke-opacity:1;stroke-dasharray:none"
     inkscape:connector-curvature="0"
     sodipodi:nodetypes="ccc" />
</svg>
